<svg width="512" height="512" id="hexatar-preview" version="1.1" xmlns="http://www.w3.org/2000/svg" xmlns:xlink="http://www.w3.org/1999/xlink" x="0px" y="0px" viewBox="0 0 512 512" style="enable-background:new 0 0 512 512;" xml:space="preserve">
    <g id="hexatar-background"><g class="hexatar-base">
		<rect class="col-obj" x="-0.003" y="0.002" style="fill: rgb(87, 182, 221);" width="512" height="512"></rect>
		<circle class="shadow-obj" style="opacity: 0.8; fill: rgb(45, 164, 212);" cx="255.997" cy="256.002" r="194.961"></circle>
	</g></g>
	<g id="hexatar-hair-rear"><g class="element-rear">
			<path class="col-obj" style="fill: rgb(56, 36, 14);" d="M364.709,181.404H145.092c11.355,48.006-43.543,126.314-69.932,150.419 c34.218,56.794,125.912,127.138,273.569,86.333C396.072,309.417,367.573,229.619,364.709,181.404z"></path>
			<path class="shadow-obj" style="opacity: 0.4; fill: rgb(15, 10, 4);" d="M364.709,181.404H255.998v248.779c27.958,0.83,58.868-2.669,92.731-12.027 C396.072,309.417,367.573,229.619,364.709,181.404z"></path>
			<g class="hair-ext" style="display: block;">
				<path class="col-obj" style="fill: rgb(56, 36, 14);" d="M370.389,86.114l-62.888,8.452c0,0-9.054,228.854,61.974,262.162 C401.252,196.437,370.389,86.114,370.389,86.114z"></path>
				<path class="shadow-obj" style="opacity: 0.4; fill: rgb(15, 10, 4);" d="M370.389,86.114l-62.888,8.452c0,0-9.054,228.854,61.974,262.162 C401.252,196.437,370.389,86.114,370.389,86.114z"></path>
			</g>
		</g></g>
	<g id="hexatar-bodies">
		<g id="hexatar-body">
			<polygon class="col-obj" style="fill: rgb(244, 177, 116);" points="380.515,465 301,451 301,334 211,334 211,451 131.636,465 94.115,512   418.035,512 "></polygon>
			<polygon class="shadow-obj" style="fill: rgb(240, 150, 69);" points="380.541,465 301,451 301,334 256,334 256,512 418.062,512 "></polygon>
			<polygon id="hexatar-neck-control" class="shadow-obj-2x" style="opacity: 0.5; fill: rgb(236, 123, 22);" points="301.054,387.482 255.998,427.693 210.942,384.615  210.942,333.485 301.054,333.485 "></polygon>
		</g>
		<g id="hexatar-clothes"><g class="hexatar-base">
		<polygon class="col-obj" style="fill: rgb(165, 150, 101);" points="382.755,464.994 315.28,435.317 256.02,449.035 196.75,435.317  129.243,464.994 92.159,511.994 419.839,511.994"></polygon>
		<path class="shadow-obj" style="opacity: 0.4; fill: rgb(136, 122, 79);" d="M92.159,511.994L140.836,512l-11.37-47.006L92.159,511.994z M383.147,464.994L372.426,512l48.028-0.006L383.147,464.994z"></path>
		<polygon class="white-obj" style="fill:#FFFFFF;" points="229.079,484.336 256.02,449.035 284.359,484.336 315.28,435.317  301.023,411.456 301.023,425.901 256.019,449.001 210.971,425.697 211.014,411.456 196.75,435.317"></polygon>
		<path class="static-obj" style="fill:#ED1C24;" d="M293.739,445.089l-28.792,17.045l-2.451-4.245h-12.992l-2.451,4.245 l-28.792-17.045c-4.099,2.337-5.095,2.905-9.195,5.242v35.925c3.987,2.358,5.038,2.98,9.026,5.338l28.753-15.806l2.659,4.605 h12.992l2.659-4.605l28.753,15.806c3.987-2.358,5.038-2.98,9.026-5.338v-35.925C298.834,447.994,297.838,447.426,293.739,445.089z"></path>
		<path class="static-obj" style="opacity:0.92;fill:#C1272D;" d="M218.261,445.089c-4.099,2.337-5.095,2.905-9.195,5.242v35.925 c3.987,2.358,5.038,2.98,9.026,5.338l28.753-15.806l-3.837-6.646l4.045-7.007L218.261,445.089z M293.739,445.089l-28.792,17.045 l4.045,7.007l-3.837,6.646l28.753,15.806c3.987-2.358,5.038-2.98,9.026-5.338v-35.925 C298.834,447.994,297.838,447.426,293.739,445.089z"></path>
	</g></g>
	</g>
	<g id="hexatar-faces">
		<g id="hexatar-ears"><g class="hexatar-base">
		<g class="hexatar-ears-right"> 	<polygon class="col-obj" style="fill: rgb(244, 177, 116);" points="172.062,179.069 172.062,241.664 141.047,251.988 128.092,240.684  123.293,197.975 103.675,171.601 118.471,155.164"></polygon> 	<polygon class="shadow-obj" style="fill: rgb(240, 150, 69);" points="141.991,236.523 138.141,194.384 121.947,177.042 125.511,170.63  172.062,195.531 172.062,229.311"></polygon>
		</g>
		<g class="hexatar-ears-left"> 	<polygon class="shadow-obj" style="fill: rgb(240, 150, 69);" points="339.369,179.069 339.369,241.664 369.818,251.988 382.774,240.684  387.572,197.975 407.19,171.601 392.394,155.164"></polygon> 	<polygon class="shadow-obj-2x" style="fill: rgb(236, 123, 22);" points="369.818,236.523 373.668,194.384 389.862,177.042 386.299,170.63  339.748,195.531 339.748,229.311"></polygon>
		</g>
	</g></g>
		<g id="hexatar-face"><g class="hexatar-base">
		<path class="col-obj" style="fill: rgb(244, 177, 116);" d="M255.986,7.171l-102.4,64.185l0,147.651l0,106.601 c0,14.274,5.909,27.91,16.323,37.672l15.545,14.57c5.622,5.269,13.037,8.201,20.742,8.201h49.789h49.789 c7.705,0,15.121-2.932,20.742-8.201l15.545-14.57c10.414-9.761,16.323-23.398,16.323-37.672V218.864l0-147.508L255.986,7.171z"></path>
		<path class="shadow-obj" style="fill: rgb(240, 150, 69);" d="M326.517,377.849l15.545-14.57c10.414-9.761,16.323-23.398,16.323-37.672 V218.864V71.355L255.986,7.171l-0.001,378.88h49.789C313.479,386.051,320.895,383.118,326.517,377.849z"></path>
	</g></g>
		<g id="hexatar-mouth"><g class="hexatar-base">
		<path class="col-obj" style="fill: rgb(131, 86, 86);" d="M233.559,315.915h45.563l-3.597,6.501c-1.958,3.539-5.684,5.736-9.729,5.736 h-18.911c-4.045,0-7.771-2.197-9.729-5.736L233.559,315.915z"></path>
		<path class="shadow-obj" style="fill: rgb(100, 66, 66);" d="M220.303,313.913l-1.105,2.003h37.143l-5.52-10h-16.969 C228.216,305.915,223.026,308.979,220.303,313.913z M278.828,305.915H261.86l-5.52,10h37.143l-1.105-2.003 C289.654,308.979,284.464,305.915,278.828,305.915z"></path>
	</g></g>
		<g id="hexatar-beard"></g>
		<g id="hexatar-mustache"></g>
		<g id="hexatar-nose"><g class="hexatar-base">
		<polygon class="shadow-obj" style="fill: rgb(240, 150, 69);" points="273.806,239.281 262.701,172.435 249.3,172.435 238.196,239.281  232.482,239.281 227.055,255.459 233.14,256.886 237.108,254.618 250.825,264.281 260.963,264.281 274.253,255.561  278.008,257.916 284.946,255.459 279.519,239.281"></polygon>
		<polygon class="shadow-obj-2x" style="fill: rgb(236, 123, 22);" points="273.806,239.281 262.701,172.435 256.001,172.435 256.001,264.281  260.963,264.281 274.253,255.561 278.008,257.916 284.946,255.459 279.519,239.281"></polygon>
	</g></g>
		<g id="hexatar-eyeGroup">
			<g id="hexatar-eye"><g class="hexatar-base">
		<g class="hexatar-eye-right">
			<path class="col-obj" style="fill: rgb(17, 17, 17);" d="M221.119,190.857h-30.873c-0.943,0-1.715,0.772-1.715,1.715 c0,0.943,0.772,1.715,1.715,1.715h10.907c-0.009,0.115-0.034,0.225-0.034,0.342c0,2.467,2,4.468,4.468,4.468 c2.467,0,4.468-2,4.468-4.468c0-0.117-0.025-0.227-0.034-0.342h11.099c0.943,0,1.715-0.772,1.715-1.715 C222.834,191.629,222.062,190.857,221.119,190.857z"></path>
		</g>
		<g class="hexatar-eye-left">
			<path class="col-obj" style="fill: rgb(17, 17, 17);" d="M321.753,190.857h-30.873c-0.943,0-1.715,0.772-1.715,1.715 c0,0.943,0.772,1.715,1.715,1.715h10.907c-0.009,0.115-0.034,0.225-0.034,0.342c0,2.467,2,4.468,4.468,4.468 c2.467,0,4.468-2,4.468-4.468c0-0.117-0.025-0.227-0.034-0.342h11.099c0.943,0,1.715-0.772,1.715-1.715 C323.467,191.629,322.696,190.857,321.753,190.857z"></path>
			<path class="shadow-obj" d="M321.753,190.857h-30.873c-0.943,0-1.715,0.772-1.715,1.715c0,0.943,0.772,1.715,1.715,1.715h10.907 c-0.009,0.115-0.034,0.225-0.034,0.342c0,2.467,2,4.468,4.468,4.468c2.467,0,4.468-2,4.468-4.468 c0-0.117-0.025-0.227-0.034-0.342h11.099c0.943,0,1.715-0.772,1.715-1.715C323.467,191.629,322.696,190.857,321.753,190.857z" style="fill: rgb(0, 0, 0);"></path>
		</g>
	</g></g>
			<g id="hexatar-eyebrows"><g class="hexatar-base">
		<g class="hexatar-eyebrows-right"> 	<path class="col-obj" style="fill: rgb(217, 99, 17);" d="M177.94,175.889l13.191-2.825l44.548,4.564c3.596,0.426,6.563-2.776,5.866-6.33 l-1.646-8.383l-7.205,3.505l-33.753-6.147C191.657,160.784,184.534,172.754,177.94,175.889L177.94,175.889z"></path>
		</g>
		<g class="hexatar-eyebrows-left"> 	<path class="col-obj" style="fill: rgb(217, 99, 17);" d="M334.84,175.74l-13.188-2.678l-44.552,4.687 c-3.595,0.437-6.573-2.757-5.886-6.312l1.629-8.425l7.21,3.437l33.757-6.215C321.096,160.708,328.229,172.641,334.84,175.74 L334.84,175.74z"></path> 	<path class="shadow-obj" style="opacity: 0.4; fill: rgb(170, 77, 13);" d="M334.84,175.74l-13.188-2.678l-44.552,4.687 c-3.595,0.437-6.573-2.757-5.886-6.312l1.629-8.425l7.21,3.437l33.757-6.215C321.096,160.708,328.229,172.641,334.84,175.74 L334.84,175.74z"></path>
		</g>
	</g></g>	
		</g>
		<g id="hexatar-hair-front"><g class="element-front">
			<path class="col-obj" style="fill: rgb(56, 36, 14);" d="M256.214,6.901L153.605,71.357l0,97.612c0,0,81.146-60.951,102.609-87.567 c29.67,59.521,102.192,87.359,102.192,87.359l0-97.404L256.214,6.901z"></path>
			<path class="shadow-obj" style="opacity: 0.4; fill: rgb(15, 10, 4);" d="M256.214,6.901v74.5c29.67,59.521,102.192,87.359,102.192,87.359l0-97.404 L256.214,6.901z"></path>
			<g class="hair-ext" style="display: block;">
				<path class="col-obj" style="fill: rgb(56, 36, 14);" d="M358.386,171.562c0.687,22.397-1.816,46.796-1.816,46.796 c8.623-23.691,18.253-69.765,19.249-79.618c4.204-41.603-9.435-77.698-45.985-108.643 c-88.843-67.571-188.123,5.575-188.123,83.669c0,92.832,14.737,115.644,14.737,115.644c-3.082-14.462-2.86-29.529-2.86-45.493 c0-84.233,44.372-152.841,101.436-152.841C308.697,31.076,356.25,101.891,358.386,171.562z"></path>
				<path class="shadow-obj" style="opacity: 0.4; fill: rgb(15, 10, 4);" d="M329.834,30.096c-24.478-18.617-49.745-26.535-73.512-26.627v27.633 c53.139,1.13,99.946,71.351,102.065,140.459c0.687,22.397-1.816,46.796-1.816,46.796c8.623-23.691,18.253-69.765,19.249-79.618 C380.023,97.137,366.384,61.042,329.834,30.096z"></path>
			</g>
		</g></g>
		<g id="hexatar-hat"></g>
		<g id="hexatar-eyeglasses"><g class="hexatar-base">
		<g class="hexatar-eyeglasses-right">
			<path class="col-obj" style="fill: rgb(165, 150, 101);" d="M244.771,176.682c-5.598-10.424-25.638-10.435-32.929-10.435 c-4.988,0-43.32,0.213-43.32,0.213c-2.882,0-5.219,2.337-5.219,5.219v3.668c0,3.137,2.044,5.895,5.04,6.824 c2.111,0.655,4.489,1.642,6.314,3.079c0.018,0.766,0.046,1.534,0.075,2.297c0.614,16.14,9.407,34.151,25.134,34.151 c29.701,0,44.499-11.214,46.198-33.792c2.339-2.277,5.87-4.84,9.936-4.84v-9.986 C252.062,173.081,247.317,174.391,244.771,176.682z M200.328,215.094c-11.7,0-18.49-14.932-18.98-27.798 c-0.219-5.757-0.046-8.438,1.595-10.143c2.892-3.004,11.534-4.286,28.899-4.286c18.441,0,27.791,3.351,27.791,9.959 C239.633,204.986,225.776,215.094,200.328,215.094z"></path>
		</g>
		<g class="hexatar-eyeglasses-left">
			<path class="col-obj" style="fill: rgb(165, 150, 101);" d="M255.998,173.081v9.986c4.066,0,7.598,2.563,9.936,4.84 c1.699,22.578,16.497,33.792,46.198,33.792c15.727,0,24.52-18.012,25.134-34.151c0.029-0.764,0.057-1.531,0.075-2.297 c1.825-1.437,4.203-2.424,6.314-3.079c2.996-0.929,5.04-3.687,5.04-6.824v-3.668c0-2.882-2.337-5.219-5.219-5.219 c0,0-38.331-0.213-43.32-0.213c-7.291,0-27.331,0.01-32.929,10.435C264.681,174.391,259.936,173.081,255.998,173.081z M272.365,182.827c0-6.608,9.35-9.959,27.791-9.959c17.365,0,26.007,1.282,28.899,4.286c1.641,1.704,1.814,4.386,1.595,10.143 c-0.49,12.866-7.28,27.798-18.98,27.798C286.222,215.094,272.365,204.986,272.365,182.827z"></path>
			<path class="shadow-obj" style="opacity: 0.4; fill: rgb(136, 122, 79);" d="M255.998,173.081v9.986c4.066,0,7.598,2.563,9.936,4.84 c1.699,22.578,16.497,33.792,46.198,33.792c15.727,0,24.52-18.012,25.134-34.151c0.029-0.764,0.057-1.531,0.075-2.297 c1.825-1.437,4.203-2.424,6.314-3.079c2.996-0.929,5.04-3.687,5.04-6.824v-3.668c0-2.882-2.337-5.219-5.219-5.219 c0,0-38.331-0.213-43.32-0.213c-7.291,0-27.331,0.01-32.929,10.435C264.681,174.391,259.936,173.081,255.998,173.081z M272.365,182.827c0-6.608,9.35-9.959,27.791-9.959c17.365,0,26.007,1.282,28.899,4.286c1.641,1.704,1.814,4.386,1.595,10.143 c-0.49,12.866-7.28,27.798-18.98,27.798C286.222,215.094,272.365,204.986,272.365,182.827z"></path>
		</g>
	</g></g>
	</g>
	<desc>Avatar generated from Hexatar.com - created with Snap</desc><text transform="matrix(1 0 0 1 0 528)" font-size="12">Avatar generated from Hexatar.com</text></svg>