<svg width="512" height="512" id="hexatar-preview" version="1.1" xmlns="http://www.w3.org/2000/svg" xmlns:xlink="http://www.w3.org/1999/xlink" x="0px" y="0px" viewBox="0 0 512 512" style="enable-background:new 0 0 512 512;" xml:space="preserve">
    <g id="hexatar-background"><g class="hexatar-base">
		<rect class="col-obj" x="-0.003" y="0.002" style="fill: rgb(251, 176, 59);" width="512" height="512"></rect>
		<path class="light-obj" style="fill: rgb(252, 196, 109);" d="M116.217,374.826c-11.581,0-20.968,9.383-20.968,20.959 s9.388,20.959,20.968,20.959c11.581,0,20.968-9.383,20.968-20.959S127.797,374.826,116.217,374.826z M46.325,163.172 c-11.581,0-20.968,9.39-20.968,20.973s9.388,20.973,20.968,20.973c11.581,0,20.968-9.39,20.968-20.973 S57.906,163.172,46.325,163.172z M46.325,25.359c-11.581,0-20.968,9.388-20.968,20.968c0,11.581,9.388,20.968,20.968,20.968 c11.581,0,20.968-9.388,20.968-20.968C67.294,34.747,57.906,25.359,46.325,25.359z M184.884,346.861 c11.982,0,21.695-9.388,21.695-20.968c0-11.581-9.713-20.968-21.695-20.968c-11.982,0-21.695,9.388-21.695,20.968 C163.189,337.473,172.902,346.861,184.884,346.861z M116.217,235.043c-11.581,0-20.968,9.383-20.968,20.959 s9.388,20.959,20.968,20.959c11.581,0,20.968-9.383,20.968-20.959S127.797,235.043,116.217,235.043z M465.663,67.296 c11.577,0,20.962-9.388,20.962-20.968c0-11.581-9.385-20.968-20.962-20.968c-11.577,0-20.962,9.388-20.962,20.968 C444.701,57.908,454.086,67.296,465.663,67.296z M465.663,346.861c11.577,0,20.962-9.388,20.962-20.968 c0-11.581-9.385-20.968-20.962-20.968c-11.577,0-20.962,9.388-20.962,20.968C444.701,337.473,454.086,346.861,465.663,346.861z M465.665,207.088c11.578,0,20.963-9.39,20.963-20.973c0-11.583-9.386-20.973-20.963-20.973s-20.963,9.39-20.963,20.973 C444.701,197.698,454.087,207.088,465.665,207.088z M186.103,444.708c-11.578,0-20.964,9.39-20.964,20.973 s9.386,20.973,20.964,20.973s20.964-9.39,20.964-20.973S197.681,444.708,186.103,444.708z M46.325,444.672 c-11.581,0-20.968,9.39-20.968,20.973c0,11.583,9.388,20.973,20.968,20.973c11.581,0,20.968-9.39,20.968-20.973 C67.294,454.062,57.906,444.672,46.325,444.672z M46.325,304.924c-11.581,0-20.968,9.388-20.968,20.968 c0,11.581,9.388,20.968,20.968,20.968c11.581,0,20.968-9.388,20.968-20.968C67.294,314.312,57.906,304.924,46.325,304.924z M184.884,67.296c11.982,0,21.695-9.388,21.695-20.968c0-11.581-9.713-20.968-21.695-20.968c-11.982,0-21.695,9.388-21.695,20.968 C163.189,57.908,172.902,67.296,184.884,67.296z M116.217,95.26c-11.581,0-20.968,9.384-20.968,20.959s9.388,20.959,20.968,20.959 c11.581,0,20.968-9.383,20.968-20.959S127.797,95.26,116.217,95.26z M395.778,374.826c-11.58,0-20.968,9.383-20.968,20.959 s9.388,20.959,20.968,20.959c11.58,0,20.968-9.383,20.968-20.959S407.358,374.826,395.778,374.826z M325.886,25.359 c-11.581,0-20.968,9.388-20.968,20.968c0,11.581,9.388,20.968,20.968,20.968c11.581,0,20.968-9.388,20.968-20.968 C346.854,34.747,337.466,25.359,325.886,25.359z M395.778,235.043c-11.58,0-20.968,9.383-20.968,20.959 s9.388,20.959,20.968,20.959c11.58,0,20.968-9.383,20.968-20.959S407.358,235.043,395.778,235.043z M395.778,95.26 c-11.58,0-20.968,9.384-20.968,20.959s9.388,20.959,20.968,20.959c11.58,0,20.968-9.383,20.968-20.959 S407.358,95.26,395.778,95.26z M186.103,165.142c-11.578,0-20.964,9.39-20.964,20.973c0,11.583,9.386,20.973,20.964,20.973 s20.964-9.39,20.964-20.973C207.067,174.532,197.681,165.142,186.103,165.142z M325.886,163.172 c-11.581,0-20.968,9.39-20.968,20.973s9.388,20.973,20.968,20.973c11.581,0,20.968-9.39,20.968-20.973 S337.466,163.172,325.886,163.172z M465.665,444.708c-11.578,0-20.963,9.39-20.963,20.973s9.386,20.973,20.963,20.973 s20.963-9.39,20.963-20.973S477.242,444.708,465.665,444.708z M255.995,235.043c-11.58,0-20.968,9.383-20.968,20.959 s9.388,20.959,20.968,20.959c11.58,0,20.968-9.383,20.968-20.959S267.575,235.043,255.995,235.043z M325.886,304.924 c-11.581,0-20.968,9.388-20.968,20.968c0,11.581,9.388,20.968,20.968,20.968c11.581,0,20.968-9.388,20.968-20.968 C346.854,314.312,337.466,304.924,325.886,304.924z M255.995,374.826c-11.58,0-20.968,9.383-20.968,20.959 s9.388,20.959,20.968,20.959c11.58,0,20.968-9.383,20.968-20.959S267.575,374.826,255.995,374.826z M325.886,444.672 c-11.581,0-20.968,9.39-20.968,20.973c0,11.583,9.388,20.973,20.968,20.973c11.581,0,20.968-9.39,20.968-20.973 C346.854,454.062,337.466,444.672,325.886,444.672z M255.995,95.26c-11.58,0-20.968,9.384-20.968,20.959 s9.388,20.959,20.968,20.959c11.58,0,20.968-9.383,20.968-20.959S267.575,95.26,255.995,95.26z"></path>
	</g></g>
	<g id="hexatar-hair-rear"></g>
	<g id="hexatar-bodies">
		<g id="hexatar-body">
			<polygon class="col-obj" style="fill: rgb(255, 216, 203);" points="380.515,465 301,451 301,334 211,334 211,451 131.636,465 94.115,512   418.035,512 "></polygon>
			<polygon class="shadow-obj" style="fill: rgb(255, 178, 152);" points="380.541,465 301,451 301,334 256,334 256,512 418.062,512 "></polygon>
			<polygon id="hexatar-neck-control" class="shadow-obj-2x" style="opacity: 0.5; fill: rgb(255, 140, 101);" points="301.054,387.482 255.998,427.693 210.942,384.615  210.942,333.485 301.054,333.485 "></polygon>
		</g>
		<g id="hexatar-clothes"><g class="hexatar-base">
		<polygon class="col-obj" style="fill: rgb(130, 113, 65);" points="382.755,464.994 315.28,435.317 256.02,449.035 196.75,435.317  129.243,464.994 92.159,511.994 419.839,511.994"></polygon>
		<path class="shadow-obj" style="opacity: 0.4; fill: rgb(96, 83, 48);" d="M92.159,511.994L140.836,512l-11.37-47.006L92.159,511.994z M383.147,464.994L372.426,512l48.028-0.006L383.147,464.994z"></path>
		<polygon class="static-obj" style="fill:#EC373D;" points="271.123,511.994 261.805,473.204 268.504,464.719 255.998,448.879  243.493,464.719 250.192,473.204 240.874,511.994"></polygon>
		<polygon class="white-obj" style="fill:#FFFFFF;" points="229.079,484.336 256.02,449.035 284.359,484.336 315.28,435.317  301.023,411.456 301.023,425.901 256.019,449.001 210.971,425.697 211.014,411.456 196.75,435.317"></polygon>
	</g></g>
	</g>
	<g id="hexatar-faces">
		<g id="hexatar-ears"><g class="hexatar-base">
		<g class="hexatar-ears-right"> 	<polygon class="col-obj" style="fill: rgb(255, 216, 203);" points="172.639,157.705 172.639,249.447 127.687,249.447 109.255,204.2  127.687,157.705"></polygon> 	<polygon class="shadow-obj" style="fill: rgb(255, 178, 152);" points="137.955,225.213 129.261,203.576 137.955,181.94 172.639,181.94  172.639,225.213"></polygon>
		</g>
		<g class="hexatar-ears-left"> 	<polygon class="shadow-obj" style="fill: rgb(255, 178, 152);" points="339.621,249.447 339.621,157.705 382.976,157.705 401.408,204.2  382.976,249.447"></polygon> 	<polygon class="shadow-obj-2x" style="fill: rgb(255, 140, 101);" points="372.708,181.94 381.402,204.823 372.708,225.213 339.621,225.213  339.621,181.94"></polygon>
		</g>
	</g></g>
		<g id="hexatar-face"><g class="hexatar-base">
		<polygon class="col-obj" style="fill: rgb(255, 216, 203);" points="256.005,7.17 153.605,71.355 153.605,251.292 146.444,294.694  185.484,323.776 216.444,386.05 296.385,386.05 326.942,323.776 365.565,294.694 358.404,251.007 358.404,71.355"></polygon>
		<polygon class="shadow-obj" style="fill: rgb(255, 178, 152);" points="256.006,7.17 256.005,386.05 296.385,386.05 326.942,323.776  365.565,294.694 358.404,251.007 358.405,71.355"></polygon>
		<polygon class="shadow-obj" style="opacity: 0.5; fill: rgb(255, 178, 152);" points="185.484,323.776 168.396,296.376 146.444,296.376"></polygon>
		<polygon class="shadow-obj-2x" style="opacity: 0.5; fill: rgb(255, 140, 101);" points="326.942,323.776 348,296.176 365.565,296.176"></polygon>
	</g></g>
		<g id="hexatar-mouth"><g class="hexatar-base">
		<polygon class="col-obj" style="fill: rgb(236, 163, 143);" points="220.382,311.877 292.295,311.877 267.146,328.877 245.531,328.877"></polygon>
		<polygon class="shadow-obj" style="fill: rgb(229, 127, 99);" points="262.624,296.236 256.339,303.115 250.054,296.236 238.062,296.292  211.196,311.877 301.481,311.877 273.939,296.181"></polygon>
	</g></g>
		<g id="hexatar-beard"></g>
		<g id="hexatar-mustache"><g class="hexatar-base">
		<path class="col-obj" style="fill: rgb(195, 153, 107);" d="M258.156,254.304l-2.159-0.761l-2.159,0.761 c-18.271,6.439-33.709,19.074-43.634,35.71l0,0c-7.438,12.467-11.365,26.715-11.365,41.232v0l57.158-37.603l57.158,37.603v0 c0-14.518-3.927-28.765-11.365-41.232l0,0C291.865,273.378,276.427,260.743,258.156,254.304z"></path>
		<path class="shadow-obj" style="opacity: 0.4; fill: rgb(179, 128, 72);" d="M301.79,290.015L301.79,290.015c-9.925-16.636-25.364-29.271-43.634-35.71 l-2.159-0.761v40.101l57.158,37.603v0C313.155,316.729,309.228,302.482,301.79,290.015z"></path>
	</g></g>
		<g id="hexatar-nose"><g class="hexatar-base">
		<polygon class="shadow-obj" style="fill: rgb(255, 178, 152);" points="263.576,228.22 267.999,173.555 244.002,173.555 248.425,228.22  241.036,248.716 233.831,253.174 235.138,260.036 256.001,264.281 276.158,260.036 278.17,253.174 270.965,248.716"></polygon>
		<polygon class="shadow-obj-2x" style="fill: rgb(255, 140, 101);" points="263.576,228.22 267.999,173.555 256.001,173.555 256.001,264.281  276.158,260.036 278.17,253.174 270.965,248.716"></polygon>
	</g></g>
		<g id="hexatar-eyeGroup">
			<g id="hexatar-eye"><g class="hexatar-base">
		<g class="hexatar-eye-right">
			<path class="white-obj" style="fill:#FFFFFF;" d="M229.338,199.083c-0.474-1.217-5.208-8.725-6.899-9.74 c-9.469-2.909-24.572-1.085-35.511,9.537c3.482,1.75,28.87,8.682,40.855,2.029C229.519,201.797,229.811,199.895,229.338,199.083z"></path>
			<path class="shadow-obj" style="opacity: 0.3; fill: rgb(128, 128, 128);" d="M219.241,190.213c-0.169-0.732-0.426-1.418-0.745-2.064 c-7.09-0.978-12.925-0.335-17.35,0.794c-0.658,1.706-0.83,3.62-0.388,5.536c1.178,5.104,6.271,8.286,11.374,7.108 C217.237,200.409,220.42,195.317,219.241,190.213z"></path>
			<circle class="col-obj" style="fill: rgb(153, 153, 153);" cx="210" cy="192.346" r="4.909"></circle>
			<circle class="white-obj" style="fill:#FFFFFF;" cx="206.933" cy="195.737" r="3.053"></circle>
			<path class="hair-col" style="fill: rgb(211, 211, 211);" d="M224.602,190.764l5.885,2.57c0,0-23.133-18.016-43.358,5.479 c2.232-2.368,18.669-13.451,35.241-8.049c3.247,2.705,5.343,5.006,6.29,6.967l0.067-0.067 C227.714,194.619,226.293,192.319,224.602,190.764z"></path>
			<path class="skin-col" style="fill: rgb(255, 140, 101);" d="M192.812,200.977c16.315,6.755,33.257,0.866,33.257,0.866 S207.098,205.094,192.812,200.977z"></path>
		</g>
		<g class="hexatar-eye-left">
			<path class="white-obj" style="fill:#FFFFFF;" d="M292.132,189.062c-1.691,1.014-6.426,8.522-6.899,9.74 c-0.473,0.812-0.182,2.714,1.556,1.827c11.985,6.653,37.372-0.279,40.855-2.029C316.704,187.977,301.601,186.153,292.132,189.062 z"></path>
			<path class="shadow-obj" style="opacity: 0.3; fill: rgb(128, 128, 128);" d="M295.329,189.932c0.169-0.732,0.426-1.418,0.745-2.064 c7.09-0.978,12.925-0.335,17.35,0.794c0.658,1.706,0.83,3.62,0.388,5.536c-1.178,5.104-6.271,8.286-11.374,7.108 C297.333,200.128,294.15,195.035,295.329,189.932z"></path>
			<circle class="col-obj" style="fill: rgb(153, 153, 153);" cx="304.57" cy="192.065" r="4.909"></circle>
			<circle class="white-obj" style="fill:#FFFFFF;" cx="307.637" cy="195.455" r="3.053"></circle>
			<path class="hair-col-2x" style="fill: rgb(185, 185, 185);" d="M292.199,190.482c16.572-5.402,33.009,5.682,35.241,8.049 c-20.225-23.495-43.358-5.479-43.358-5.479l5.885-2.57c-1.691,1.555-3.112,3.856-4.126,6.9l0.067,0.067 C286.856,195.488,288.953,193.187,292.199,190.482z"></path>
			<path class="skin-col-2x" style="fill: rgb(255, 102, 50);" d="M288.501,201.562c0,0,16.942,5.889,33.257-0.866 C307.472,204.813,288.501,201.562,288.501,201.562z"></path>
		</g>
	</g></g>
			<g id="hexatar-eyebrows"><g class="hexatar-base">
		<g class="hexatar-eyebrows-right"> 	<path class="col-obj" style="fill: rgb(211, 211, 211);" d="M182.905,167.553l10.957-3.576l10.134,3.022l3.458,1.732 c6.944,3.477,14.489,5.593,22.228,6.233l2.253,0.186l0,0c-1.587-5.55-6.403-9.567-12.147-10.135l-3.113-0.308l-0.753-0.276 c-7.834-2.874-16.175-4.111-24.506-3.636h0L182.905,167.553z"></path>
		</g>
		<g class="hexatar-eyebrows-left"> 	<path class="col-obj" style="fill: rgb(211, 211, 211);" d="M329.858,167.553l-10.957-3.576l-10.134,3.022l-3.458,1.732 c-6.944,3.477-14.489,5.593-22.228,6.233l-2.253,0.186l0,0c1.587-5.55,6.403-9.567,12.147-10.135l3.113-0.308l0.753-0.276 c7.834-2.874,16.175-4.111,24.506-3.636h0L329.858,167.553z"></path> 	<path class="shadow-obj" style="opacity: 0.4; fill: rgb(185, 185, 185);" d="M329.858,167.553l-10.957-3.576l-10.134,3.022l-3.458,1.732 c-6.944,3.477-14.489,5.593-22.228,6.233l-2.253,0.186l0,0c1.587-5.55,6.403-9.567,12.147-10.135l3.113-0.308l0.753-0.276 c7.834-2.874,16.175-4.111,24.506-3.636h0L329.858,167.553z"></path>
		</g>
	</g></g>	
		</g>
		<g id="hexatar-hair-front"><g class="element-front">
			<polygon class="col-obj" style="fill: rgb(197, 74, 41);" points="256.211,6.901 153.602,71.356 153.602,232.942 172.515,232.942  172.515,139.266 186.685,125.614 186.685,72.492 284.676,107.227 325.319,107.227 325.319,125.614 339.49,139.266  339.49,232.942 358.402,232.942 358.403,71.356"></polygon>
			<polygon class="shadow-obj" style="opacity: 0.4; fill: rgb(155, 58, 32);" points="256.211,6.901 256.211,97.137 284.676,107.227 325.319,107.227  325.319,125.614 339.49,139.266 339.49,232.942 358.402,232.942 358.403,71.356"></polygon>
		</g></g>
		<g id="hexatar-hat"></g>
		<g id="hexatar-eyeglasses"></g>
	</g>
	<desc>Avatar generated from Hexatar.com - created with Snap</desc><text transform="matrix(1 0 0 1 0 528)" font-size="12">Avatar generated from Hexatar.com</text></svg>