<svg width="512" height="512" id="hexatar-preview" version="1.1" xmlns="http://www.w3.org/2000/svg" xmlns:xlink="http://www.w3.org/1999/xlink" x="0px" y="0px" viewBox="0 0 512 512" style="enable-background:new 0 0 512 512;" xml:space="preserve">
    <g id="hexatar-background"><g class="hexatar-base">
		<rect class="col-obj" x="-0.003" y="0.002" style="fill: rgb(236, 41, 123);" width="512" height="512"></rect>
		<path class="shadow-obj" style="opacity: 0.6; fill: rgb(208, 18, 98);" d="M42.666,512.001h85.333v-512H42.666V512.001z M383.999,0.001v512 h85.333v-512H383.999z M213.332,512.001h85.333v-512h-85.333V512.001z"></path>
		<path class="shadow-obj" style="opacity: 0.6; fill: rgb(208, 18, 98);" d="M-0.001,298.667h512v-85.333h-512V298.667z M-0.001,469.334h512 v-85.333h-512V469.334z M-0.001,42.667v85.333h512V42.667H-0.001z"></path>
	</g></g>
	<g id="hexatar-hair-rear"><g class="element-rear">
			<path class="col-obj" style="fill: rgb(192, 99, 66);" d="M164.377,205.768c-32.595,0-67.066,42.362-67.066,85.235 c0,42.873,34.471,70.023,67.066,70.023s59.019-34.756,59.019-77.629C223.396,240.523,196.972,205.768,164.377,205.768z M347.634,205.768c-32.595,0-59.019,34.756-59.019,77.629c0,42.873,26.424,77.629,59.019,77.629s67.066-27.15,67.066-70.023 C414.7,248.13,380.229,205.768,347.634,205.768z"></path>
			<path class="shadow-obj" style="opacity: 0.4; fill: rgb(155, 79, 52);" d="M347.634,205.768c-32.595,0-59.019,34.756-59.019,77.629 c0,42.873,26.424,77.629,59.019,77.629s67.066-27.15,67.066-70.023C414.7,248.13,380.229,205.768,347.634,205.768z"></path>
			<g class="hair-ext" style="display: block;">
			</g>
		</g></g>
	<g id="hexatar-bodies">
		<g id="hexatar-body">
			<polygon class="col-obj" style="fill: rgb(255, 227, 218);" points="380.515,465 301,451 301,334 211,334 211,451 131.636,465 94.115,512   418.035,512 "></polygon>
			<polygon class="shadow-obj" style="fill: rgb(255, 188, 167);" points="380.541,465 301,451 301,334 256,334 256,512 418.062,512 "></polygon>
			<polygon id="hexatar-neck-control" class="shadow-obj-2x" style="opacity: 0.5; fill: rgb(255, 149, 116);" points="301.054,387.482 255.998,427.693 210.942,384.615  210.942,333.485 301.054,333.485 "></polygon>
		</g>
		<g id="hexatar-clothes"><g class="hexatar-base">
		<path class="white-obj" style="fill:#FFFFFF;" d="M314.881,511.994H196.874v-35.523c0,0,27.74,14.098,59.004,14.098 s59.004-14.098,59.004-14.098V511.994z"></path>
		<path class="static-obj" style="fill:#E6E6E6;" d="M255.878,496.3c26.818,0,51.14-9.92,59.003-13.479v-6.35 c0,0-27.74,14.099-59.003,14.099c-31.264,0-59.004-14.099-59.004-14.099v6.35C204.737,486.38,229.06,496.3,255.878,496.3z"></path>
		<path class="shadow-obj-2x" style="fill: rgb(102, 0, 0);" d="M329.553,417.167h-28.499v14.956h43.008v-0.447 C344.063,423.663,337.567,417.167,329.553,417.167z M167.935,432.123h43.008v-14.956h-28.052 C174.631,417.167,167.935,423.863,167.935,432.123z"></path>
		<path class="col-obj" style="fill: rgb(204, 0, 0);" d="M168,457.399l-38.757,7.595l-37.084,47h131.175v-80H168V457.399z M382.755,464.994L344,457.399v-25.405h-54.605v80h130.444L382.755,464.994z"></path>
		<path class="shadow-obj" style="opacity: 0.4; fill: rgb(153, 0, 0);" d="M92.159,511.994L140.836,512l-11.37-47.006L92.159,511.994z M383.147,464.994L372.426,512l48.028-0.006L383.147,464.994z"></path>
	</g></g>
	</g>
	<g id="hexatar-faces">
		<g id="hexatar-ears"><g class="hexatar-base">
		<g class="hexatar-ears-right"> 	<polygon class="col-obj" style="fill: rgb(255, 227, 218);" points="172.639,157.705 172.639,249.447 127.687,249.447 109.255,204.2  127.687,157.705"></polygon> 	<polygon class="shadow-obj" style="fill: rgb(255, 188, 167);" points="137.955,225.213 129.261,203.576 137.955,181.94 172.639,181.94  172.639,225.213"></polygon>
		</g>
		<g class="hexatar-ears-left"> 	<polygon class="shadow-obj" style="fill: rgb(255, 188, 167);" points="339.621,249.447 339.621,157.705 382.976,157.705 401.408,204.2  382.976,249.447"></polygon> 	<polygon class="shadow-obj-2x" style="fill: rgb(255, 149, 116);" points="372.708,181.94 381.402,204.823 372.708,225.213 339.621,225.213  339.621,181.94"></polygon>
		</g>
	</g></g>
		<g id="hexatar-face"><g class="hexatar-base">
		<path class="col-obj" style="fill: rgb(255, 227, 218);" d="M255.986,7.171l-102.4,64.185l0,215.98c0,21.911,10.554,42.48,28.353,55.259 l56.415,40.502c2.676,1.921,5.886,2.954,9.18,2.954h17.668c3.329,0,6.572-1.055,9.263-3.014l55.927-40.708 c17.589-12.802,27.993-33.244,27.993-54.999l0-215.974L255.986,7.171z"></path>
		<path class="shadow-obj" style="fill: rgb(255, 188, 167);" d="M255.986,7.171l-0.001,378.88h9.216c3.329,0,6.572-1.055,9.263-3.014 l55.928-40.708c17.589-12.802,27.993-33.244,27.993-54.999l0-215.974L255.986,7.171z"></path>
	</g></g>
		<g id="hexatar-mouth"><g class="hexatar-base">
		<path class="col-obj" style="fill: rgb(131, 86, 86);" d="M223.304,314.077h66.072l-7.257,14.581c-1.57,3.154-4.789,5.148-8.312,5.148 h-34.934c-3.523,0-6.742-1.994-8.312-5.148L223.304,314.077z"></path>
		<path class="shadow-obj" style="fill: rgb(100, 66, 66);" d="M266.265,302.583l-9.925,3.389l-9.925-3.389 c-1.454-0.496-2.98-0.75-4.516-0.75h-6.203c-2.395,0-4.698,0.926-6.426,2.584l-10.072,9.66h74.285l-10.611-9.784 c-1.715-1.581-3.962-2.459-6.294-2.459h-5.796C269.245,301.833,267.719,302.087,266.265,302.583z"></path>
	</g></g>
		<g id="hexatar-beard"></g>
		<g id="hexatar-mustache"></g>
		<g id="hexatar-nose"><g class="hexatar-base">
		<polygon class="shadow-obj" style="fill: rgb(255, 188, 167);" points="273.749,234.932 278.048,194.263 233.954,194.263 238.253,234.932  232.557,234.932 227.148,251.058 234.361,256.466 238.01,255.462 248.787,267.281 256.001,267.281 263.214,267.281  273.991,255.462 277.64,256.466 284.853,251.058 279.444,234.932"></polygon>
		<polygon class="shadow-obj-2x" style="fill: rgb(255, 149, 116);" points="273.749,234.932 278.048,194.263 256.001,194.263 256.001,267.281  263.214,267.281 273.991,255.462 277.64,256.466 284.853,251.058 279.444,234.932"></polygon>
	</g></g>
		<g id="hexatar-eyeGroup">
			<g id="hexatar-eye"><g class="hexatar-base">
		<g class="hexatar-eye-right">
			<path class="col-obj" style="fill: rgb(174, 222, 228);" d="M222.652,197.339c-3.474-5.153-9.061-8.229-14.945-8.229 c-6.968,0-13.277,4.176-16.465,10.897c-0.855,1.805-0.086,3.961,1.718,4.817c0.5,0.237,1.027,0.35,1.547,0.35 c1.354,0,2.651-0.764,3.27-2.068c1.978-4.172,5.783-6.764,9.93-6.764c3.528,0,6.789,1.837,8.948,5.04 c1.117,1.656,3.364,2.094,5.02,0.977C223.33,201.242,223.768,198.995,222.652,197.339z"></path>
		</g>
		<g class="hexatar-eye-left">
			<path class="col-obj" style="fill: rgb(174, 222, 228);" d="M320.756,200.007c-3.188-6.722-9.497-10.897-16.465-10.897 c-5.884,0-11.471,3.076-14.945,8.229c-1.116,1.656-0.679,3.903,0.977,5.02c1.656,1.117,3.903,0.679,5.02-0.977 c2.159-3.203,5.42-5.04,8.948-5.04c4.146,0,7.952,2.592,9.93,6.764c0.619,1.304,1.917,2.068,3.27,2.068 c0.52,0,1.046-0.112,1.547-0.35C320.842,203.968,321.611,201.812,320.756,200.007z"></path>
			<path class="shadow-obj" d="M320.756,200.007c-3.188-6.722-9.497-10.897-16.465-10.897c-5.884,0-11.471,3.076-14.945,8.229 c-1.116,1.656-0.679,3.903,0.977,5.02c1.656,1.117,3.903,0.679,5.02-0.977c2.159-3.203,5.42-5.04,8.948-5.04 c4.146,0,7.952,2.592,9.93,6.764c0.619,1.304,1.917,2.068,3.27,2.068c0.52,0,1.046-0.112,1.547-0.35 C320.842,203.968,321.611,201.812,320.756,200.007z" style="fill: rgb(136, 206, 215);"></path>
		</g>
	</g></g>
			<g id="hexatar-eyebrows"><g class="hexatar-base">
		<g class="hexatar-eyebrows-right"> 	<polygon class="col-obj" style="fill: rgb(34, 65, 78);" points="178.155,177.187 190.026,171.684 231.935,175.149 233.828,165.955  191.416,162.211"></polygon>
		</g>
		<g class="hexatar-eyebrows-left"> 	<polygon class="col-obj" style="fill: rgb(34, 65, 78);" points="334.608,177.187 322.736,171.684 280.828,175.149 278.935,165.955  321.347,162.211"></polygon> 	<polygon class="shadow-obj" style="opacity: 0.4; fill: rgb(19, 35, 42);" points="334.608,177.187 322.736,171.684 280.828,175.149 278.935,165.955  321.347,162.211"></polygon>
		</g>
	</g></g>	
		</g>
		<g id="hexatar-hair-front"><g class="element-front">
			<path class="col-obj" style="fill: rgb(192, 99, 66);" d="M256.214,6.901L153.605,71.357l0,97.612c0,0,9.157-51.422,30.62-78.038 c29.67,59.521,76.309,87.83,174.18,77.061l0-96.635L256.214,6.901z"></path>
			<path class="shadow-obj" style="opacity: 0.4; fill: rgb(155, 79, 52);" d="M256.214,6.901v153.335c26.12,9.675,59.215,12.484,102.192,7.755l0-96.635 L256.214,6.901z"></path>
			<g class="hair-ext" style="display: block;">
				<path class="col-obj" style="fill: rgb(192, 99, 66);" d="M153.587,183.917c0-84.233,44.372-152.841,101.436-152.841 c57.064,0,103.323,68.284,103.323,152.518c0,15.965-1.665,31.354-4.747,45.817c0,0,14.737-27.427,14.737-115.645 c0-78.094-45.675-109.67-113.313-109.67S141.71,35.672,141.71,113.766c0,92.832,14.737,115.644,14.737,115.644 C153.365,214.948,153.587,199.882,153.587,183.917z"></path>
				<path class="shadow-obj" style="opacity: 0.4; fill: rgb(155, 79, 52);" d="M368.337,113.766c0-77.595-45.097-109.259-112.023-109.661V31.1 c56.468,1.022,102.033,68.897,102.033,152.493c0,15.965-1.665,31.354-4.747,45.817 C353.6,229.41,368.337,201.983,368.337,113.766z"></path>
			</g>
		</g></g>
		<g id="hexatar-hat"></g>
		<g id="hexatar-eyeglasses"><g class="hexatar-base">
		<g class="hexatar-eyeglasses-right">
			<path class="col-obj" style="fill: rgb(127, 65, 23);" d="M256.006,173.97h-9.791c-0.466-1.754-0.715-3.006-0.715-3.006H217.38 c-2.647-0.157-5.064-0.207-7.022-0.207c-4.139,0-7.827,0.057-11.116,0.207h-30.846v6.26c0,1.312,0.78,2.492,1.986,3.008 c1.811,0.776,4.157,2.84,3.815,8.335l0.003-0.004c-0.47,4.795-0.553,9.206-0.2,13.085c0.124,1.356,1.071,2.429,2.306,2.787 c1.479,9.351,5.73,15.559,12.757,18.486c7.065,2.944,17.602,4.846,26.846,4.846c5.787,0,13.614-0.742,18.033-4.277 c4.503-3.602,7.634-10.516,9.523-18.204c1.164-0.287,2.122-1.206,2.382-2.459c0.311-1.503,0.581-3.002,0.81-4.487 c0.716-4.643,4.651-8.101,9.348-8.101l0,0v-5.14h-3.235c-2.85,0-5.024-5.764-6.224-9.931h9.459V173.97z M240.916,204.844 c-1.793,7.2-4.667,13.512-8.578,16.64c-2.994,2.395-8.828,3.714-16.428,3.714c-8.931,0-19.081-1.824-25.857-4.648 c-6.119-2.549-9.853-8.07-11.202-16.449c1.02-0.616,1.664-1.768,1.549-3.034c-0.356-3.91-0.238-8.452,0.349-13.499 c0.898-7.717,2.585-10.386,29.61-10.386c21.293,0,30.824,4.854,30.824,9.664c0,4.398-0.577,9.612-1.626,14.68 C239.283,202.845,239.862,204.138,240.916,204.844z"></path>
		</g>
		<g class="hexatar-eyeglasses-left">
			<path class="col-obj" style="fill: rgb(127, 65, 23);" d="M256.007,175.169h9.459c-1.2,4.167-3.375,9.931-6.224,9.931h-3.235v5.14h0 c4.698,0,8.633,3.458,9.348,8.101c0.229,1.485,0.499,2.984,0.81,4.487c0.259,1.253,1.218,2.172,2.382,2.459 c1.89,7.688,5.02,14.602,9.523,18.204c4.419,3.536,12.246,4.277,18.033,4.277c9.244,0,19.782-1.902,26.846-4.846 c7.027-2.928,11.278-9.135,12.757-18.486c1.235-0.358,2.183-1.431,2.306-2.787c0.353-3.88,0.27-8.29-0.2-13.085l0.003,0.004 c-0.342-5.495,2.004-7.559,3.815-8.335c1.206-0.517,1.986-1.696,1.986-3.008v-6.26h-30.846c-3.289-0.15-6.977-0.207-11.116-0.207 c-1.958,0-4.375,0.05-7.022,0.207h-28.119c0,0-0.25,1.252-0.715,3.006h-9.791V175.169z M272.457,201.527 c-1.049-5.068-1.626-10.282-1.626-14.68c0-4.81,9.531-9.664,30.824-9.664c27.026,0,28.712,2.669,29.61,10.386 c0.587,5.047,0.705,9.589,0.349,13.499c-0.115,1.267,0.528,2.419,1.549,3.034c-1.349,8.379-5.084,13.9-11.202,16.449 c-6.777,2.824-16.926,4.648-25.857,4.648c-7.599,0-13.434-1.319-16.428-3.714c-3.911-3.129-6.785-9.441-8.578-16.64 C272.15,204.138,272.73,202.845,272.457,201.527z"></path>
			<path class="shadow-obj" style="opacity: 0.4; fill: rgb(84, 43, 15);" d="M256.007,175.169h9.459c-1.2,4.167-3.375,9.931-6.224,9.931h-3.235v5.14h0 c4.698,0,8.633,3.458,9.348,8.101c0.229,1.485,0.499,2.984,0.81,4.487c0.259,1.253,1.218,2.172,2.382,2.459 c1.89,7.688,5.02,14.602,9.523,18.204c4.419,3.536,12.246,4.277,18.033,4.277c9.244,0,19.782-1.902,26.846-4.846 c7.027-2.928,11.278-9.135,12.757-18.486c1.235-0.358,2.183-1.431,2.306-2.787c0.353-3.88,0.27-8.29-0.2-13.085l0.003,0.004 c-0.342-5.495,2.004-7.559,3.815-8.335c1.206-0.517,1.986-1.696,1.986-3.008v-6.26h-30.846c-3.289-0.15-6.977-0.207-11.116-0.207 c-1.958,0-4.375,0.05-7.022,0.207h-28.119c0,0-0.25,1.252-0.715,3.006h-9.791V175.169z M272.457,201.527 c-1.049-5.068-1.626-10.282-1.626-14.68c0-4.81,9.531-9.664,30.824-9.664c27.026,0,28.712,2.669,29.61,10.386 c0.587,5.047,0.705,9.589,0.349,13.499c-0.115,1.267,0.528,2.419,1.549,3.034c-1.349,8.379-5.084,13.9-11.202,16.449 c-6.777,2.824-16.926,4.648-25.857,4.648c-7.599,0-13.434-1.319-16.428-3.714c-3.911-3.129-6.785-9.441-8.578-16.64 C272.15,204.138,272.73,202.845,272.457,201.527z"></path>
		</g>
	</g></g>
	</g>
	<desc>Avatar generated from Hexatar.com - created with Snap</desc><text transform="matrix(1 0 0 1 0 528)" font-size="12">Avatar generated from Hexatar.com</text></svg>