<svg width="512" height="512" id="hexatar-preview" version="1.1" xmlns="http://www.w3.org/2000/svg" xmlns:xlink="http://www.w3.org/1999/xlink" x="0px" y="0px" viewBox="0 0 512 512" style="enable-background:new 0 0 512 512;" xml:space="preserve">
    <g id="hexatar-background"><g class="hexatar-base">
		<rect class="col-obj" x="-0.003" y="0.002" style="fill: rgb(146, 138, 206);" width="512" height="512"></rect>
		<path class="light-obj" style="opacity: 0.8; fill: rgb(179, 174, 221);" d="M253.725,0.002H89.221l82.252,82.252L253.725,0.002z M258.27,0.002 l82.252,82.252l82.252-82.252H258.27z M85.957,508.87l-85.96-82.521v85.653h251.877l4.124-4.124l-84.525-84.525L85.957,508.87z M511.997,422.778V253.729l-0.925-0.925l-84.525,84.524L511.997,422.778z M260.121,512.002h251.876v-85.654l-85.96,82.521 l-85.515-85.515l-84.525,84.525L260.121,512.002z M-0.003,253.73v169.049l85.45-85.451L0.923,252.804L-0.003,253.73z M169.972,252.804l-84.525,84.524l86.025,86.025l84.525-84.525L169.972,252.804z M255.998,338.829l84.525,84.525l86.025-86.025 l-84.524-84.524L255.998,338.829z M511.997,0.002h-89.223l87.782,84.269l-84.008,84.008l84.525,84.525l0.925-0.925V0.002z M426.548,168.279l-86.025-86.025l-84.525,84.525l86.025,86.025L426.548,168.279z M1.439,84.271L89.221,0.002H-0.003v251.876 l0.926,0.926l84.525-84.525L1.439,84.271z M169.972,252.804l86.025-86.025l-84.525-84.525l-86.025,86.025L169.972,252.804z"></path>
	</g></g>
	<g id="hexatar-hair-rear"></g>
	<g id="hexatar-bodies">
		<g id="hexatar-body">
			<polygon class="col-obj" style="fill: rgb(254, 226, 208);" points="380.515,465 301,451 301,334 211,334 211,451 131.636,465 94.115,512   418.035,512 "></polygon>
			<polygon class="shadow-obj" style="fill: rgb(253, 195, 158);" points="380.541,465 301,451 301,334 256,334 256,512 418.062,512 "></polygon>
			<polygon id="hexatar-neck-control" class="shadow-obj-2x" style="opacity: 0.5; fill: rgb(252, 164, 108);" points="301.054,387.482 255.998,427.693 210.942,384.615  210.942,333.485 301.054,333.485 "></polygon>
		</g>
		<g id="hexatar-clothes"><g class="hexatar-base">
		<polygon class="col-obj" style="fill: rgb(212, 107, 212);" points="382.805,464.994 329.298,453.417 329.298,432.066 256.039,438.937  182.739,432.066 182.739,453.417 129.243,464.994 92.159,511.994 419.839,511.994"></polygon>
		<polygon class="white-obj" style="fill:#FFFFFF;" points="329.298,415.341 301.023,415.341 301.023,432.037 210.971,431.832  211.014,415.341 182.739,415.341 182.739,453.417 329.298,453.417"></polygon>
		<polygon class="static-obj" style="fill:#CCCCCC;" points="301.023,422.742 301.023,432.037 210.971,431.832 210.995,422.742  191.368,422.742 191.368,432.066 320.67,432.066 320.67,422.742"></polygon>
		<path class="shadow-obj" style="fill: rgb(201, 67, 201);" d="M131.484,511.994h51.251l0.005-58.577l-34.787,7.528L131.484,511.994z M365.565,461.26l-36.206-7.843l0.005,58.577h51.251L365.565,461.26z"></path>
	</g></g>
	</g>
	<g id="hexatar-faces">
		<g id="hexatar-ears"><g class="hexatar-base">
		<g class="hexatar-ears-right"> 	<polygon class="col-obj" style="fill: rgb(254, 226, 208);" points="172.046,162.41 172.046,244.742 155.235,244.742 115.324,187.268  132.991,162.41"></polygon> 	<polygon class="shadow-obj" style="fill: rgb(253, 195, 158);" points="172.046,173.299 172.046,227.539 157.864,227.539 129.571,189.675  140.913,173.299"></polygon>
		</g>
		<g class="hexatar-ears-left"> 	<polygon class="shadow-obj" style="fill: rgb(253, 195, 158);" points="339.621,244.742 339.621,162.41 377.672,162.41 395.338,187.268  355.428,244.742"></polygon> 	<polygon class="shadow-obj-2x" style="fill: rgb(252, 164, 108);" points="339.621,227.852 339.621,172.985 370.453,172.985 381.925,189.55  353.306,227.852"></polygon>
		</g>
	</g></g>
		<g id="hexatar-face"><g class="hexatar-base">
		<polygon class="col-obj" style="fill: rgb(254, 226, 208);" points="256.005,7.17 153.605,71.355 153.605,218.686 162.892,248.202  181.345,341.65 242.487,386.05 270.342,386.05 330.664,341.363 349.117,248.202 358.404,218.686 358.404,71.355"></polygon>
		<path class="shadow-obj" style="fill: rgb(253, 195, 158);" d="M256.005,7.17l-0.001,378.88h14.338l60.322-44.687l18.454-93.161l9.287-29.516 V71.355L256.005,7.17z"></path>
	</g></g>
		<g id="hexatar-mouth"><g class="hexatar-base">
		<polygon class="col-obj" style="fill: rgb(208, 155, 109);" points="223.302,314.077 289.375,314.077 276.374,333.806 236.303,333.806"></polygon>
		<path class="shadow-obj" style="fill: rgb(196, 129, 70);" d="M231.904,304.077l-12.708,10h37.143l-5.52-10H231.904z M280.773,304.077 h-18.915l-5.52,10h37.143L280.773,304.077z"></path>
	</g></g>
		<g id="hexatar-beard"></g>
		<g id="hexatar-mustache"><g class="hexatar-base">
		<path class="col-obj" style="fill: rgb(217, 99, 17);" d="M310.72,278.078c-5.801-7.136-25.64-10.502-33.776-10.448 c-7.779,0.052-16.789-1.972-20.795-3.724v-0.033c-0.012,0.006-0.028,0.011-0.04,0.017c-0.013-0.006-0.028-0.011-0.04-0.017v0.033 c-4.006,1.753-13.017,3.776-20.795,3.724c-8.136-0.054-27.974,3.312-33.776,10.448c0,0-5.326,40.802,0,61.252 c2.832,10.874,7.45,18.285,11.935,24.288c6.926,9.271,17.827,14.717,29.399,14.717h26.554c11.573,0,22.473-5.446,29.399-14.717 c4.485-6.003,9.103-13.414,11.935-24.288C316.046,318.88,310.72,278.078,310.72,278.078z M289.726,360.179 c-15.512,13.444-28.342,3.138-28.342-8.025h-10.549c0,11.163-12.83,21.469-28.342,8.025s-13.27-62.731-10.009-74.76 c0,0,11.333,1.722,25.673,0c9.333-1.12,15.773-6.442,17.953-11.784c2.18,5.342,8.62,10.664,17.953,11.784 c14.34,1.722,25.673,0,25.673,0C302.996,297.448,305.238,346.735,289.726,360.179z"></path>
		<path class="shadow-obj" style="opacity: 0.4; fill: rgb(170, 77, 13);" d="M256.069,352.153h5.315c0,11.163,12.83,21.469,28.342,8.025 s13.27-62.731,10.009-74.76c0,0-11.333,1.722-25.673,0c-9.385-1.127-15.849-6.502-17.993-11.874v-9.672 c3.968,1.76,13.048,3.81,20.876,3.758c8.136-0.054,27.974,3.312,33.776,10.448c0,0,5.326,40.802,0,61.252 c-2.832,10.874-7.45,18.285-11.935,24.288c-6.926,9.271-17.827,14.717-29.399,14.717h-13.317V352.153z"></path>
	</g></g>
		<g id="hexatar-nose"><g class="hexatar-base">
		<polygon class="shadow-obj" style="fill: rgb(253, 195, 158);" points="271.547,175.435 240.455,175.435 244.258,242.86 234.669,248.615  229.567,261.916 234.853,262.765 237.383,259.589 250.715,267.281 261.18,267.281 274.298,259.589 276.722,262.765  281.901,261.916 277.333,248.615 267.744,242.86"></polygon>
		<polygon class="shadow-obj-2x" style="fill: rgb(252, 164, 108);" points="271.547,175.435 256.001,175.435 256.001,267.281 261.18,267.281  274.298,259.589 276.722,262.765 281.901,261.916 277.333,248.615 267.744,242.86"></polygon>
	</g></g>
		<g id="hexatar-eyeGroup">
			<g id="hexatar-eye"><g class="hexatar-base">
		<g class="hexatar-eye-right">
			<path class="white-obj" style="fill:#FFFFFF;" d="M228.742,199.712c0,0-24.761,7.12-39.059-4.822 c16.734-3.719,33.879-8.272,40.757,3.708C231.04,201.162,228.742,199.712,228.742,199.712z"></path>
			<path class="shadow-obj" style="opacity: 0.3; fill: rgb(0, 0, 0);" d="M201.859,192.271c0.024,0.126,0.043,0.251,0.072,0.377 c1.178,5.105,6.272,8.288,11.377,7.11c4.049-0.935,6.88-4.335,7.293-8.248C215.292,190.267,208.775,190.96,201.859,192.271z"></path>
			<path class="col-obj" style="fill: rgb(17, 17, 17);" d="M206.387,191.505c0.521,2.515,2.894,4.235,5.473,3.871 c2.322-0.328,4.027-2.231,4.202-4.476C213.058,190.751,209.798,191.009,206.387,191.505z"></path>
			<circle class="white-obj" style="fill:#FFFFFF;" cx="208.973" cy="194.648" r="1.687"></circle>
			<path class="hair-col" style="fill: rgb(56, 36, 14);" d="M208.981,190.376c-10.544,1.392-22.441,4.627-22.441,4.627 s8.07-0.708,12.666-1.53c9.157-1.638,24.843-3.912,31.234,4.674C230.44,198.146,227.716,187.902,208.981,190.376z"></path>
		</g>
		<g class="hexatar-eye-left">
			<path class="white-obj" style="fill:#FFFFFF;" d="M287.379,199.712c0,0,24.761,7.12,39.059-4.822 c-16.734-3.719-33.879-8.272-40.757,3.708C285.082,201.162,287.379,199.712,287.379,199.712z"></path>
			<path class="shadow-obj" style="opacity: 0.3; fill: rgb(0, 0, 0);" d="M314.263,192.271c-0.024,0.126-0.043,0.251-0.072,0.377 c-1.178,5.105-6.272,8.288-11.377,7.11c-4.049-0.935-6.88-4.335-7.293-8.248C300.83,190.267,307.346,190.96,314.263,192.271z"></path>
			<path class="col-obj" style="fill: rgb(17, 17, 17);" d="M309.734,191.505c-0.521,2.515-2.894,4.235-5.473,3.871 c-2.322-0.328-4.027-2.231-4.202-4.476C303.064,190.751,306.323,191.009,309.734,191.505z"></path>
			<circle class="white-obj" style="fill:#FFFFFF;" cx="307.148" cy="194.648" r="1.687"></circle>
			<path class="hair-col-2x" style="fill: rgb(15, 10, 4);" d="M285.681,198.146c6.391-8.586,22.078-6.312,31.234-4.674 c4.596,0.822,12.666,1.53,12.666,1.53s-11.898-3.235-22.441-4.627C288.405,187.902,285.681,198.146,285.681,198.146z"></path>
		</g>
	</g></g>
			<g id="hexatar-eyebrows"><g class="hexatar-base">
		<g class="hexatar-eyebrows-right"> 	<path class="col-obj" style="fill: rgb(56, 36, 14);" d="M178.292,176.866l3.943-1.287c5.12-1.671,10.402-2.796,15.758-3.356l9.245-0.966 c5.478-0.572,11.015,0.049,16.23,1.821l1.724,0.586c3.009,1.023,6.316-0.271,7.833-3.063l0,0l-9.242-3.073 c-6.292-2.092-13.021-2.511-19.524-1.215l-5.595,1.115C191.22,168.911,184.237,172.147,178.292,176.866L178.292,176.866z"></path>
		</g>
		<g class="hexatar-eyebrows-left"> 	<path class="col-obj" style="fill: rgb(56, 36, 14);" d="M334.47,176.866l-3.943-1.287c-5.12-1.671-10.402-2.796-15.758-3.356 l-9.246-0.966c-5.478-0.572-11.015,0.049-16.229,1.821l-1.724,0.586c-3.009,1.023-6.316-0.271-7.833-3.063v0l9.242-3.073 c6.292-2.092,13.021-2.511,19.524-1.215l5.595,1.115C321.542,168.911,328.526,172.147,334.47,176.866L334.47,176.866z"></path> 	<path class="shadow-obj" style="opacity: 0.4; fill: rgb(15, 10, 4);" d="M334.47,176.866l-3.943-1.287c-5.12-1.671-10.402-2.796-15.758-3.356 l-9.246-0.966c-5.478-0.572-11.015,0.049-16.229,1.821l-1.724,0.586c-3.009,1.023-6.316-0.271-7.833-3.063v0l9.242-3.073 c6.292-2.092,13.021-2.511,19.524-1.215l5.595,1.115C321.542,168.911,328.526,172.147,334.47,176.866L334.47,176.866z"></path>
		</g>
	</g></g>	
		</g>
		<g id="hexatar-hair-front"><g class="element-front">
			<polygon class="col-obj" style="fill: rgb(192, 99, 66);" points="256.26,6.947 153.607,71.356 153.607,175.3 172.52,175.3  172.982,154.138 281.914,111.457 258.029,152.504 339.494,72.543 339.494,175.3 358.406,175.3 358.407,71.356"></polygon>
			<polygon class="shadow-obj" style="opacity: 0.4; fill: rgb(155, 79, 52);" points="256.26,7.126 256.26,121.475 281.452,111.642 258.029,152.504  339.494,72.543 339.494,175.3 358.406,175.3 358.407,71.356"></polygon>
		</g></g>
		<g id="hexatar-hat"></g>
		<g id="hexatar-eyeglasses"><g class="hexatar-base">
		<g class="hexatar-eyeglasses-right">
			<path class="col-obj" style="fill: rgb(153, 204, 102);" d="M246.151,176.625c0,0,0.002,0.007,0.003,0.008 c-6.96-3.677-35.487-5.006-50.451-4.061c-11.019,0.696-21.225,3.782-21.225,3.782s0,2.598,0,4.386l-5.844,1.043v5.204 l5.844,1.043c0,1.352,0,3.7,0,3.7h5.209c-0.268-2.588-0.288-5.18-0.168-7.467c0.323-6.144,2.867-7.883,18.874-8.893 c14.131-0.892,42.862,0.647,43.128,4.712c0.223,3.405,0.029,7.65-0.622,11.648h3.213c1.644,0,3.05-1.221,3.235-2.855 c0.001-0.01,0.002-0.019,0.003-0.029c-0.001,0.018-0.001,0.036-0.002,0.054c2.157-3.853,8.647-3.677,8.647-3.677v-3.338 C250,181.884,251.015,178.403,246.151,176.625z"></path>
			<path class="static-obj" style="opacity:0.5;fill:#FFFFFF;" d="M236.227,203.407c-4.5,4.025-40.945,5.155-48.306,2.676 c-7.674-2.585-8.814-13.988-8.402-21.821c0.323-6.144,2.867-7.883,18.874-8.893c14.131-0.892,42.862,0.647,43.128,4.712 C242.023,187.734,240.429,199.649,236.227,203.407z"></path>
			<path class="static-obj" style="opacity:0.5;fill:#FFFFFF;" d="M236.227,198.806c-4.5,4.025-40.945,5.155-48.306,2.676 c-6.14-2.068-8.092-9.779-8.418-16.792c-0.349,7.815,0.88,18.854,8.418,21.393c7.361,2.48,43.806,1.349,48.306-2.676 c4.089-3.657,5.702-15.027,5.324-22.689C241.239,187.754,239.553,195.832,236.227,198.806z"></path>
		</g>
		<g class="hexatar-eyeglasses-left">
			<path class="col-obj" style="fill: rgb(153, 204, 102);" d="M265.84,176.625c0,0-0.002,0.007-0.003,0.008 c6.96-3.677,35.487-5.006,50.451-4.061c11.019,0.696,21.225,3.782,21.225,3.782s0,2.598,0,4.386l5.844,1.043v5.204l-5.844,1.043 c0,1.352,0,3.7,0,3.7h-5.209c0.268-2.588,0.288-5.18,0.168-7.467c-0.323-6.144-2.867-7.883-18.874-8.893 c-14.131-0.892-42.862,0.647-43.128,4.712c-0.223,3.405-0.029,7.65,0.622,11.648h-3.213c-1.644,0-3.05-1.221-3.235-2.855 c-0.001-0.01-0.002-0.019-0.003-0.029c0.001,0.018,0.001,0.036,0.002,0.054c-2.157-3.853-8.647-3.677-8.647-3.677v-3.338 C261.991,181.884,260.976,178.403,265.84,176.625z"></path>
			<path class="static-obj" style="opacity:0.5;fill:#FFFFFF;" d="M270.411,180.08c0.266-4.064,28.998-5.604,43.128-4.712 c16.008,1.011,18.551,2.749,18.874,8.893c0.412,7.833-0.728,19.236-8.402,21.821c-7.361,2.48-43.806,1.349-48.306-2.676 C271.503,199.649,269.91,187.734,270.411,180.08z"></path>
			<path class="static-obj" style="opacity:0.5;fill:#FFFFFF;" d="M324.012,201.482c-7.361,2.48-43.806,1.349-48.306-2.676 c-3.325-2.974-5.011-11.052-5.324-18.088c-0.378,7.662,1.235,19.032,5.324,22.689c4.5,4.025,40.945,5.155,48.306,2.676 c7.538-2.539,8.768-13.578,8.418-21.393C332.104,191.703,330.152,199.414,324.012,201.482z"></path>
		</g>
	</g></g>
	</g>
	<desc>Avatar generated from Hexatar.com - created with Snap</desc><text transform="matrix(1 0 0 1 0 528)" font-size="12">Avatar generated from Hexatar.com</text></svg>