<svg width="512" height="512" id="hexatar-preview" version="1.1" xmlns="http://www.w3.org/2000/svg" xmlns:xlink="http://www.w3.org/1999/xlink" x="0px" y="0px" viewBox="0 0 512 512" style="enable-background:new 0 0 512 512;" xml:space="preserve">
    <g id="hexatar-background"><g class="hexatar-base">
		<rect class="col-obj" x="-0.004" y="0.003" style="fill: rgb(153, 153, 153);" width="512" height="512"></rect>
	</g></g>
	<g id="hexatar-hair-rear"><g class="element-rear">
			<path class="col-obj" style="fill: rgb(197, 74, 41);" d="M164.377,205.768c-32.595,0-67.066,42.362-67.066,85.235 c0,42.873,34.471,70.023,67.066,70.023s59.019-34.756,59.019-77.629C223.396,240.523,196.972,205.768,164.377,205.768z M347.634,205.768c-32.595,0-59.019,34.756-59.019,77.629c0,42.873,26.424,77.629,59.019,77.629s67.066-27.15,67.066-70.023 C414.7,248.13,380.229,205.768,347.634,205.768z"></path>
			<path class="shadow-obj" style="opacity: 0.4; fill: rgb(155, 58, 32);" d="M347.634,205.768c-32.595,0-59.019,34.756-59.019,77.629 c0,42.873,26.424,77.629,59.019,77.629s67.066-27.15,67.066-70.023C414.7,248.13,380.229,205.768,347.634,205.768z"></path>
			<g class="hair-ext" style="display: block;">
			</g>
		</g></g>
	<g id="hexatar-bodies">
		<g id="hexatar-body">
			<polygon class="col-obj" style="fill: rgb(253, 231, 200);" points="380.515,465 301,451 301,334 211,334 211,451 131.636,465 94.115,512   418.035,512 "></polygon>
			<polygon class="shadow-obj" style="fill: rgb(251, 210, 151);" points="380.541,465 301,451 301,334 256,334 256,512 418.062,512 "></polygon>
			<polygon id="hexatar-neck-control" class="shadow-obj-2x" style="opacity: 0.5; fill: rgb(249, 189, 102);" points="301.054,387.482 255.998,427.693 210.942,384.615  210.942,333.485 301.054,333.485 "></polygon>
		</g>
		<g id="hexatar-clothes"><g class="hexatar-base">
		<polygon class="col-obj" style="fill: rgb(153, 153, 153);" points="382.755,464.994 315.28,435.317 256.02,449.035 196.75,435.317  129.243,464.994 92.159,511.994 419.839,511.994"></polygon>
		<path class="shadow-obj" style="opacity: 0.4; fill: rgb(128, 128, 128);" d="M92.159,511.994L140.836,512l-11.37-47.006L92.159,511.994z M383.147,464.994L372.426,512l48.028-0.006L383.147,464.994z"></path>
		<polygon class="static-obj" style="fill:#EC373D;" points="271.123,511.994 261.805,473.204 268.504,464.719 255.998,448.879  243.493,464.719 250.192,473.204 240.874,511.994"></polygon>
		<polygon class="white-obj" style="fill:#FFFFFF;" points="229.079,484.336 256.02,449.035 284.359,484.336 315.28,435.317  301.023,411.456 301.023,425.901 256.019,449.001 210.971,425.697 211.014,411.456 196.75,435.317"></polygon>
	</g></g>
	</g>
	<g id="hexatar-faces">
		<g id="hexatar-ears"><g class="hexatar-base">
		<g class="hexatar-ears-right"> 	<polygon class="col-obj" style="fill: rgb(253, 231, 200);" points="171.911,177.661 171.911,240.256 140.113,251.005 109.255,165.009  127.687,156.148"></polygon> 	<polygon class="shadow-obj" style="fill: rgb(251, 210, 151);" points="148.201,233.516 125.67,173.636 171.911,192.124 171.911,225.905"></polygon>
		</g>
		<g class="hexatar-ears-left"> 	<polygon class="shadow-obj" style="fill: rgb(251, 210, 151);" points="339.587,240.256 339.587,177.661 382.976,156.148 401.408,165.009  370.55,251.005"></polygon> 	<polygon class="shadow-obj-2x" style="fill: rgb(249, 189, 102);" points="384.556,174.867 362.909,232.285 339.587,225.853 339.587,192.072"></polygon>
		</g>
	</g></g>
		<g id="hexatar-face"><g class="hexatar-base">
		<path class="col-obj" style="fill: rgb(253, 231, 200);" d="M358.385,268.696V71.355L255.986,7.171l-102.4,64.185v197.339 c0,9.954,4.348,19.412,11.903,25.893l10.869,9.325l36.456,64.759c6.044,10.736,17.408,17.38,29.729,17.38h13.443h14.082 c12.417,0,23.853-6.746,29.859-17.614l35.629-64.47l10.931-9.381C354.04,288.104,358.385,278.648,358.385,268.696z"></path>
		<path class="shadow-obj" style="fill: rgb(251, 210, 151);" d="M358.385,268.696V71.355L255.986,7.171l-0.001,378.88h14.082 c12.417,0,23.853-6.746,29.859-17.614l35.629-64.47l10.932-9.382C354.04,288.103,358.385,278.648,358.385,268.696z"></path>
	</g></g>
		<g id="hexatar-mouth"><g class="hexatar-base">
		<path class="col-obj" style="fill: rgb(229, 129, 31);" d="M230.274,314.077h52.132l-9.513,12.24c-2.334,3.003-5.924,4.76-9.728,4.76h-13.65 c-3.803,0-7.394-1.757-9.728-4.76L230.274,314.077z"></path>
		<path class="shadow-obj" style="fill: rgb(187, 104, 22);" d="M260.756,306.128l-4.415,2.306l-4.415-2.306 c-2.239-1.169-4.795-1.586-7.29-1.188l-34.767,5.547l21.621,7.264h49.267l22.057-7.264l-34.767-5.547 C265.551,304.542,262.995,304.958,260.756,306.128z"></path>
	</g></g>
		<g id="hexatar-beard"></g>
		<g id="hexatar-mustache"></g>
		<g id="hexatar-nose"><g class="hexatar-base">
		<polygon class="shadow-obj" style="fill: rgb(251, 210, 151);" points="267.646,179.801 244.355,179.801 238.358,225.092 219.412,240.431  223.454,256.052 249.96,266.197 261.621,266.197 289.779,256.052 292.589,240.431 273.643,225.092"></polygon>
		<polygon class="shadow-obj-2x" style="fill: rgb(249, 189, 102);" points="267.646,179.801 256.001,179.801 256.001,266.197 261.621,266.197  289.779,256.052 292.589,240.431 273.643,225.092"></polygon>
	</g></g>
		<g id="hexatar-eyeGroup">
			<g id="hexatar-eye"></g>
			<g id="hexatar-eyebrows"><g class="hexatar-base">
		<g class="hexatar-eyebrows-right"> 	<polygon class="col-obj" style="fill: rgb(217, 99, 17);" points="179.559,171.759 199.257,170.6 226.223,173.454 199.117,165.113"></polygon>
		</g>
		<g class="hexatar-eyebrows-left"> 	<polygon class="col-obj" style="fill: rgb(217, 99, 17);" points="333.153,173.292 313.573,170.853 286.478,171.944 314.07,165.386"></polygon> 	<polygon class="shadow-obj" style="opacity: 0.4; fill: rgb(170, 77, 13);" points="333.153,173.292 313.573,170.853 286.478,171.944 314.07,165.386"></polygon>
		</g>
	</g></g>	
		</g>
		<g id="hexatar-hair-front"><g class="element-front">
			<path class="col-obj" style="fill: rgb(197, 74, 41);" d="M256.214,6.901L153.605,71.357l0,97.612c0,0,9.157-51.422,30.62-78.038 c29.67,59.521,76.309,87.83,174.18,77.061l0-96.635L256.214,6.901z"></path>
			<path class="shadow-obj" style="opacity: 0.4; fill: rgb(155, 58, 32);" d="M256.214,6.901v153.335c26.12,9.675,59.215,12.484,102.192,7.755l0-96.635 L256.214,6.901z"></path>
			<g class="hair-ext" style="display: block;">
				<path class="col-obj" style="fill: rgb(197, 74, 41);" d="M153.587,183.917c0-84.233,44.372-152.841,101.436-152.841 c57.064,0,103.323,68.284,103.323,152.518c0,15.965-1.665,31.354-4.747,45.817c0,0,14.737-27.427,14.737-115.645 c0-78.094-45.675-109.67-113.313-109.67S141.71,35.672,141.71,113.766c0,92.832,14.737,115.644,14.737,115.644 C153.365,214.948,153.587,199.882,153.587,183.917z"></path>
				<path class="shadow-obj" style="opacity: 0.4; fill: rgb(155, 58, 32);" d="M368.337,113.766c0-77.595-45.097-109.259-112.023-109.661V31.1 c56.468,1.022,102.033,68.897,102.033,152.493c0,15.965-1.665,31.354-4.747,45.817 C353.6,229.41,368.337,201.983,368.337,113.766z"></path>
			</g>
		</g></g>
		<g id="hexatar-hat"></g>
		<g id="hexatar-eyeglasses"><g class="hexatar-base">
		<g class="hexatar-eyeglasses-right">
			<path class="col-obj" style="fill: rgb(192, 99, 66);" d="M237.418,195.635c-1.524-14.999-14.191-26.703-29.592-26.703 c-16.428,0-29.746,13.318-29.746,29.746s13.318,29.746,29.746,29.746s29.746-13.318,29.746-29.746 c0-0.334-0.014-0.664-0.025-0.995c1.928-0.566,12.571-1.717,18.459-1.717v-2C250.223,193.966,239.665,195.002,237.418,195.635z M232.145,202.323c0,1.836,0.664,3.429,1.648,4.318c-3.404,11.112-13.741,19.193-25.967,19.193 c-14.998,0-27.156-12.158-27.156-27.156s12.158-27.156,27.156-27.156c14.551,0,26.428,11.445,27.123,25.825 C233.355,197.774,232.145,199.834,232.145,202.323z"></path>
		</g>
		<g class="hexatar-eyeglasses-left">
			<path class="col-obj" style="fill: rgb(192, 99, 66);" d="M255.999,193.966v2c5.888,0,16.531,1.151,18.459,1.717 c-0.011,0.331-0.025,0.661-0.025,0.995c0,16.428,13.318,29.746,29.746,29.746s29.746-13.318,29.746-29.746 s-13.318-29.746-29.746-29.746c-15.401,0-28.068,11.704-29.592,26.703C272.339,195.002,261.781,193.966,255.999,193.966z M277.056,197.346c0.695-14.379,12.571-25.825,27.123-25.825c14.998,0,27.156,12.158,27.156,27.156s-12.158,27.156-27.156,27.156 c-12.227,0-22.563-8.081-25.967-19.193c0.984-0.889,1.648-2.482,1.648-4.318C279.859,199.834,278.649,197.774,277.056,197.346z"></path>
			<path class="shadow-obj" d="M255.999,193.966v2c5.888,0,16.531,1.151,18.459,1.717c-0.011,0.331-0.025,0.661-0.025,0.995 c0,16.428,13.318,29.746,29.746,29.746s29.746-13.318,29.746-29.746s-13.318-29.746-29.746-29.746 c-15.401,0-28.068,11.704-29.592,26.703C272.339,195.002,261.781,193.966,255.999,193.966z M277.056,197.346 c0.695-14.379,12.571-25.825,27.123-25.825c14.998,0,27.156,12.158,27.156,27.156s-12.158,27.156-27.156,27.156 c-12.227,0-22.563-8.081-25.967-19.193c0.984-0.889,1.648-2.482,1.648-4.318C279.859,199.834,278.649,197.774,277.056,197.346z" style="fill: rgb(155, 79, 52);"></path>
		</g>
	</g></g>
	</g>
	<desc>Avatar generated from Hexatar.com - created with Snap</desc><text transform="matrix(1 0 0 1 0 528)" font-size="12">Avatar generated from Hexatar.com</text></svg>